<svg xmlns="http://www.w3.org/2000/svg" xmlns:xlink="http://www.w3.org/1999/xlink" width="500" zoomAndPan="magnify" viewBox="0 0 375 374.999991" height="500" preserveAspectRatio="xMidYMid meet" version="1.0"><defs><g/><clipPath id="ce66309121"><path d="M 70 153.179688 L 134.5 153.179688 L 134.5 222.179688 L 70 222.179688 Z M 70 153.179688 " clip-rule="nonzero"/></clipPath><clipPath id="a88c1258d9"><path d="M 65.5 172 L 120 172 L 120 222 L 65.5 222 Z M 65.5 172 " clip-rule="nonzero"/></clipPath><clipPath id="d7953f6b29"><path d="M 15 153.179688 L 79 153.179688 L 79 222.179688 L 15 222.179688 Z M 15 153.179688 " clip-rule="nonzero"/></clipPath><clipPath id="6f7b3a5717"><path d="M 30 172 L 83.636719 172 L 83.636719 222 L 30 222 Z M 30 172 " clip-rule="nonzero"/></clipPath></defs><g clip-path="url(#ce66309121)"><path fill="#004aad" d="M 100 153.179688 C 87.695312 153.179688 76.898438 159.621094 70.789062 169.3125 L 78.585938 169.3125 C 83.757812 163.285156 91.433594 159.46875 100 159.46875 C 115.582031 159.46875 128.210938 172.097656 128.210938 187.679688 C 128.210938 203.257812 115.582031 215.890625 100 215.890625 C 99.238281 215.890625 98.484375 215.859375 97.738281 215.800781 C 97.710938 217.300781 97.695312 218.546875 97.695312 219.53125 C 97.695312 219.847656 97.695312 220.878906 97.699219 222.101562 C 98.460938 222.152344 99.226562 222.179688 100 222.179688 C 119.054688 222.179688 134.5 206.734375 134.5 187.679688 C 134.5 168.625 119.054688 153.179688 100 153.179688 " fill-opacity="1" fill-rule="nonzero"/></g><g clip-path="url(#a88c1258d9)"><path fill="#004aad" d="M 104.742188 192.175781 C 103.375 192.738281 101.757812 193.019531 99.898438 193.019531 C 99.082031 193.019531 98.265625 192.964844 97.445312 192.863281 L 97.445312 199.160156 C 99.175781 199.476562 100.808594 199.632812 102.335938 199.632812 C 105.464844 199.632812 108.308594 199.046875 110.871094 197.878906 C 113.4375 196.707031 115.445312 194.9375 116.894531 192.5625 C 118.347656 190.191406 119.074219 187.554688 119.074219 184.652344 C 119.074219 182.738281 118.734375 180.953125 118.058594 179.289062 C 117.453125 177.804688 116.5625 176.53125 115.394531 175.472656 C 114.226562 174.417969 112.863281 173.640625 111.3125 173.144531 C 109.851562 172.695312 107.566406 172.472656 104.460938 172.472656 C 102.957031 172.472656 100.921875 172.503906 98.355469 172.574219 C 95.792969 172.640625 93.789062 172.675781 92.351562 172.675781 C 90.789062 172.675781 74.992188 172.65625 68.953125 172.625 C 67.886719 174.816406 67.046875 177.136719 66.464844 179.558594 C 66.292969 180.265625 66.144531 180.980469 66.019531 181.703125 C 65.984375 181.882812 65.957031 182.0625 65.929688 182.242188 C 65.648438 184.015625 65.5 185.828125 65.5 187.679688 C 65.5 199.65625 71.601562 210.203125 80.867188 216.390625 C 81.726562 216.964844 82.613281 217.5 83.527344 217.996094 C 86.578125 219.660156 89.90625 220.871094 93.425781 221.550781 C 93.410156 219.367188 93.402344 215.800781 93.402344 215.152344 C 93.402344 213.015625 93.472656 209.664062 93.605469 205.097656 L 94.007812 192.210938 C 94.109375 189.117188 94.253906 185.90625 94.4375 182.585938 L 85.253906 182.585938 L 84.929688 192.953125 L 84.085938 210.664062 L 84.058594 210.988281 L 84.0625 210.957031 C 83.125 210.316406 82.230469 209.617188 81.378906 208.871094 C 75.5 203.703125 71.789062 196.125 71.789062 187.679688 C 71.789062 185.820312 71.972656 184.003906 72.316406 182.242188 C 72.351562 182.0625 72.386719 181.882812 72.425781 181.703125 C 72.582031 180.976562 72.769531 180.261719 72.980469 179.558594 L 94.609375 179.558594 C 95.597656 179.558594 96.730469 179.535156 98.011719 179.488281 C 99.289062 179.445312 100.558594 179.421875 101.816406 179.421875 C 103.25 179.421875 104.355469 179.507812 105.128906 179.675781 C 105.902344 179.84375 106.609375 180.164062 107.25 180.636719 C 107.890625 181.109375 108.378906 181.738281 108.714844 182.527344 C 109.050781 183.3125 109.21875 184.179688 109.21875 185.125 C 109.21875 186.722656 108.816406 188.15625 108.007812 189.425781 C 107.199219 190.695312 106.113281 191.613281 104.742188 192.175781 " fill-opacity="1" fill-rule="nonzero"/></g><g clip-path="url(#d7953f6b29)"><path fill="#004aad" d="M 49.136719 153.179688 C 61.441406 153.179688 72.238281 159.621094 78.347656 169.3125 L 70.550781 169.3125 C 65.378906 163.285156 57.703125 159.46875 49.136719 159.46875 C 33.554688 159.46875 20.925781 172.097656 20.925781 187.679688 C 20.925781 203.257812 33.554688 215.890625 49.136719 215.890625 C 49.898438 215.890625 50.652344 215.859375 51.398438 215.800781 C 51.425781 217.300781 51.441406 218.546875 51.441406 219.53125 C 51.441406 219.847656 51.441406 220.878906 51.4375 222.101562 C 50.675781 222.152344 49.910156 222.179688 49.136719 222.179688 C 30.082031 222.179688 14.636719 206.734375 14.636719 187.679688 C 14.636719 168.625 30.082031 153.179688 49.136719 153.179688 " fill-opacity="1" fill-rule="nonzero"/></g><g clip-path="url(#6f7b3a5717)"><path fill="#004aad" d="M 44.394531 192.175781 C 45.761719 192.738281 47.378906 193.019531 49.238281 193.019531 C 50.054688 193.019531 50.871094 192.964844 51.691406 192.863281 L 51.691406 199.160156 C 49.960938 199.476562 48.328125 199.632812 46.800781 199.632812 C 43.671875 199.632812 40.828125 199.046875 38.265625 197.878906 C 35.699219 196.707031 33.691406 194.9375 32.242188 192.5625 C 30.789062 190.191406 30.0625 187.554688 30.0625 184.652344 C 30.0625 182.738281 30.402344 180.953125 31.078125 179.289062 C 31.683594 177.804688 32.574219 176.53125 33.742188 175.472656 C 34.910156 174.417969 36.273438 173.640625 37.824219 173.144531 C 39.285156 172.695312 41.570312 172.472656 44.675781 172.472656 C 46.179688 172.472656 48.214844 172.503906 50.78125 172.574219 C 53.34375 172.640625 55.347656 172.675781 56.785156 172.675781 C 58.347656 172.675781 74.144531 172.65625 80.183594 172.625 C 81.25 174.816406 82.089844 177.136719 82.671875 179.558594 C 82.84375 180.265625 82.992188 180.980469 83.117188 181.703125 C 83.152344 181.882812 83.179688 182.0625 83.207031 182.242188 C 83.488281 184.015625 83.636719 185.828125 83.636719 187.679688 C 83.636719 199.65625 77.535156 210.203125 68.269531 216.390625 C 67.410156 216.964844 66.523438 217.5 65.609375 217.996094 C 62.558594 219.660156 59.230469 220.871094 55.710938 221.550781 C 55.726562 219.367188 55.734375 215.800781 55.734375 215.152344 C 55.734375 213.015625 55.664062 209.664062 55.53125 205.097656 L 55.128906 192.210938 C 55.027344 189.117188 54.882812 185.90625 54.699219 182.585938 L 63.882812 182.585938 L 64.207031 192.953125 L 65.050781 210.664062 L 65.078125 210.988281 L 65.074219 210.957031 C 66.011719 210.316406 66.90625 209.617188 67.757812 208.871094 C 73.636719 203.703125 77.347656 196.125 77.347656 187.679688 C 77.347656 185.820312 77.164062 184.003906 76.820312 182.242188 C 76.785156 182.0625 76.75 181.882812 76.710938 181.703125 C 76.554688 180.976562 76.367188 180.261719 76.15625 179.558594 L 54.527344 179.558594 C 53.539062 179.558594 52.40625 179.535156 51.125 179.488281 C 49.847656 179.445312 48.578125 179.421875 47.320312 179.421875 C 45.886719 179.421875 44.78125 179.507812 44.007812 179.675781 C 43.234375 179.84375 42.527344 180.164062 41.886719 180.636719 C 41.246094 181.109375 40.757812 181.738281 40.421875 182.527344 C 40.085938 183.3125 39.917969 184.179688 39.917969 185.125 C 39.917969 186.722656 40.320312 188.15625 41.128906 189.425781 C 41.9375 190.695312 43.023438 191.613281 44.394531 192.175781 " fill-opacity="1" fill-rule="nonzero"/></g><g fill="#000000" fill-opacity="1"><g transform="translate(140.74709, 183.119988)"><g><path d="M 0.71875 -9.90625 L 4.328125 -9.90625 C 5.335938 -9.90625 6.15625 -9.644531 6.78125 -9.125 C 7.40625 -8.601562 7.71875 -7.84375 7.71875 -6.84375 C 7.71875 -5.851562 7.398438 -5.078125 6.765625 -4.515625 C 6.128906 -3.953125 5.316406 -3.671875 4.328125 -3.671875 L 2.96875 -3.671875 L 2.96875 0 L 0.71875 0 Z M 2.96875 -5.46875 L 3.609375 -5.46875 C 4.117188 -5.46875 4.535156 -5.566406 4.859375 -5.765625 C 5.179688 -5.972656 5.34375 -6.3125 5.34375 -6.78125 C 5.34375 -7.25 5.179688 -7.582031 4.859375 -7.78125 C 4.535156 -7.988281 4.117188 -8.09375 3.609375 -8.09375 L 2.96875 -8.09375 Z M 2.96875 -5.46875 "/></g></g></g><g fill="#000000" fill-opacity="1"><g transform="translate(151.739161, 183.119988)"><g><path d="M 0.71875 -9.90625 L 4.265625 -9.90625 C 5.210938 -9.90625 5.984375 -9.648438 6.578125 -9.140625 C 7.179688 -8.628906 7.484375 -7.898438 7.484375 -6.953125 C 7.484375 -6.234375 7.300781 -5.625 6.9375 -5.125 C 6.570312 -4.632812 6.078125 -4.289062 5.453125 -4.09375 L 8.875 0 L 6 0 L 2.96875 -3.90625 L 2.96875 0 L 0.71875 0 Z M 2.96875 -5.515625 L 3.234375 -5.515625 C 3.441406 -5.515625 3.617188 -5.515625 3.765625 -5.515625 C 3.910156 -5.523438 4.070312 -5.550781 4.25 -5.59375 C 4.4375 -5.644531 4.585938 -5.710938 4.703125 -5.796875 C 4.816406 -5.890625 4.910156 -6.019531 4.984375 -6.1875 C 5.066406 -6.351562 5.109375 -6.554688 5.109375 -6.796875 C 5.109375 -7.035156 5.066406 -7.238281 4.984375 -7.40625 C 4.910156 -7.582031 4.816406 -7.710938 4.703125 -7.796875 C 4.585938 -7.890625 4.4375 -7.957031 4.25 -8 C 4.070312 -8.050781 3.910156 -8.078125 3.765625 -8.078125 C 3.617188 -8.085938 3.441406 -8.09375 3.234375 -8.09375 L 2.96875 -8.09375 Z M 2.96875 -5.515625 "/></g></g></g><g fill="#000000" fill-opacity="1"><g transform="translate(163.331235, 183.119988)"><g><path d="M 0.28125 -4.953125 C 0.28125 -6.390625 0.765625 -7.601562 1.734375 -8.59375 C 2.710938 -9.582031 3.890625 -10.078125 5.265625 -10.078125 C 6.648438 -10.078125 7.828125 -9.582031 8.796875 -8.59375 C 9.765625 -7.601562 10.25 -6.390625 10.25 -4.953125 C 10.25 -3.503906 9.769531 -2.285156 8.8125 -1.296875 C 7.863281 -0.304688 6.679688 0.1875 5.265625 0.1875 C 3.816406 0.1875 2.625 -0.300781 1.6875 -1.28125 C 0.75 -2.269531 0.28125 -3.492188 0.28125 -4.953125 Z M 2.71875 -4.953125 C 2.71875 -4.429688 2.796875 -3.957031 2.953125 -3.53125 C 3.109375 -3.101562 3.382812 -2.738281 3.78125 -2.4375 C 4.1875 -2.144531 4.679688 -2 5.265625 -2 C 6.109375 -2 6.742188 -2.285156 7.171875 -2.859375 C 7.597656 -3.441406 7.8125 -4.140625 7.8125 -4.953125 C 7.8125 -5.765625 7.59375 -6.457031 7.15625 -7.03125 C 6.71875 -7.613281 6.085938 -7.90625 5.265625 -7.90625 C 4.453125 -7.90625 3.820312 -7.613281 3.375 -7.03125 C 2.9375 -6.457031 2.71875 -5.765625 2.71875 -4.953125 Z M 2.71875 -4.953125 "/></g></g></g><g fill="#000000" fill-opacity="1"><g transform="translate(176.855309, 183.119988)"><g><path d="M 6.4375 -9.90625 L 6.4375 -7.921875 L 2.96875 -7.921875 L 2.96875 -5.953125 L 6.1875 -5.953125 L 6.1875 -3.96875 L 2.96875 -3.96875 L 2.96875 0 L 0.71875 0 L 0.71875 -9.90625 Z M 6.4375 -9.90625 "/></g></g></g><g fill="#000000" fill-opacity="1"><g transform="translate(186.659382, 183.119988)"><g><path d="M 2.96875 -9.90625 L 2.96875 0 L 0.71875 0 L 0.71875 -9.90625 Z M 2.96875 -9.90625 "/></g></g></g><g fill="#000000" fill-opacity="1"><g transform="translate(193.355446, 183.119988)"><g><path d="M 0.09375 -7.921875 L 0.09375 -9.90625 L 7.0625 -9.90625 L 7.0625 -7.921875 L 4.703125 -7.921875 L 4.703125 0 L 2.453125 0 L 2.453125 -7.921875 Z M 0.09375 -7.921875 "/></g></g></g><g fill="#000000" fill-opacity="1"><g transform="translate(203.507522, 183.119988)"><g><path d="M 5.75 -9.90625 L 9.75 0 L 7.3125 0 L 6.59375 -1.984375 L 2.8125 -1.984375 L 2.09375 0 L -0.34375 0 L 3.65625 -9.90625 Z M 5.8125 -3.953125 L 4.71875 -6.84375 L 4.6875 -6.84375 L 3.59375 -3.953125 Z M 5.8125 -3.953125 "/></g></g></g><g fill="#000000" fill-opacity="1"><g transform="translate(215.915594, 183.119988)"><g><path d="M 0.71875 -9.90625 L 3.796875 -9.90625 C 4.722656 -9.90625 5.460938 -9.707031 6.015625 -9.3125 C 6.566406 -8.914062 6.84375 -8.269531 6.84375 -7.375 C 6.84375 -6.382812 6.429688 -5.675781 5.609375 -5.25 C 7.015625 -5.007812 7.71875 -4.179688 7.71875 -2.765625 C 7.71875 -1.929688 7.425781 -1.257812 6.84375 -0.75 C 6.269531 -0.25 5.476562 0 4.46875 0 L 0.71875 0 Z M 2.96875 -6.03125 L 3.15625 -6.03125 C 3.65625 -6.03125 4.03125 -6.113281 4.28125 -6.28125 C 4.53125 -6.457031 4.65625 -6.75 4.65625 -7.15625 C 4.65625 -7.820312 4.15625 -8.15625 3.15625 -8.15625 L 2.96875 -8.15625 Z M 2.96875 -1.734375 L 3.6875 -1.734375 C 4.789062 -1.734375 5.34375 -2.101562 5.34375 -2.84375 C 5.34375 -3.28125 5.203125 -3.59375 4.921875 -3.78125 C 4.648438 -3.976562 4.238281 -4.078125 3.6875 -4.078125 L 2.96875 -4.078125 Z M 2.96875 -1.734375 "/></g></g></g><g fill="#000000" fill-opacity="1"><g transform="translate(226.907667, 183.119988)"><g><path d="M 2.96875 -9.90625 L 2.96875 0 L 0.71875 0 L 0.71875 -9.90625 Z M 2.96875 -9.90625 "/></g></g></g><g fill="#000000" fill-opacity="1"><g transform="translate(233.60373, 183.119988)"><g><path d="M 2.96875 -9.90625 L 2.96875 -1.984375 L 6.390625 -1.984375 L 6.390625 0 L 0.71875 0 L 0.71875 -9.90625 Z M 2.96875 -9.90625 "/></g></g></g><g fill="#000000" fill-opacity="1"><g transform="translate(243.383799, 183.119988)"><g><path d="M 2.96875 -9.90625 L 2.96875 0 L 0.71875 0 L 0.71875 -9.90625 Z M 2.96875 -9.90625 "/></g></g></g><g fill="#000000" fill-opacity="1"><g transform="translate(250.079862, 183.119988)"><g><path d="M 0.09375 -7.921875 L 0.09375 -9.90625 L 7.0625 -9.90625 L 7.0625 -7.921875 L 4.703125 -7.921875 L 4.703125 0 L 2.453125 0 L 2.453125 -7.921875 Z M 0.09375 -7.921875 "/></g></g></g><g fill="#000000" fill-opacity="1"><g transform="translate(260.231939, 183.119988)"><g><path d="M -0.359375 -9.90625 L 2.359375 -9.90625 L 4.421875 -6.734375 L 6.484375 -9.90625 L 9.1875 -9.90625 L 5.546875 -4.4375 L 5.546875 0 L 3.28125 0 L 3.28125 -4.4375 Z M -0.359375 -9.90625 "/></g></g></g><g fill="#000000" fill-opacity="1"><g transform="translate(272.064019, 183.119988)"><g/></g></g><g fill="#000000" fill-opacity="1"><g transform="translate(278.340084, 183.119988)"><g><path d="M 0.71875 -9.90625 L 4.328125 -9.90625 C 5.335938 -9.90625 6.15625 -9.644531 6.78125 -9.125 C 7.40625 -8.601562 7.71875 -7.84375 7.71875 -6.84375 C 7.71875 -5.851562 7.398438 -5.078125 6.765625 -4.515625 C 6.128906 -3.953125 5.316406 -3.671875 4.328125 -3.671875 L 2.96875 -3.671875 L 2.96875 0 L 0.71875 0 Z M 2.96875 -5.46875 L 3.609375 -5.46875 C 4.117188 -5.46875 4.535156 -5.566406 4.859375 -5.765625 C 5.179688 -5.972656 5.34375 -6.3125 5.34375 -6.78125 C 5.34375 -7.25 5.179688 -7.582031 4.859375 -7.78125 C 4.535156 -7.988281 4.117188 -8.09375 3.609375 -8.09375 L 2.96875 -8.09375 Z M 2.96875 -5.46875 "/></g></g></g><g fill="#000000" fill-opacity="1"><g transform="translate(289.332156, 183.119988)"><g><path d="M 5.75 -9.90625 L 9.75 0 L 7.3125 0 L 6.59375 -1.984375 L 2.8125 -1.984375 L 2.09375 0 L -0.34375 0 L 3.65625 -9.90625 Z M 5.8125 -3.953125 L 4.71875 -6.84375 L 4.6875 -6.84375 L 3.59375 -3.953125 Z M 5.8125 -3.953125 "/></g></g></g><g fill="#000000" fill-opacity="1"><g transform="translate(301.740229, 183.119988)"><g><path d="M 0.71875 -9.90625 L 4.265625 -9.90625 C 5.210938 -9.90625 5.984375 -9.648438 6.578125 -9.140625 C 7.179688 -8.628906 7.484375 -7.898438 7.484375 -6.953125 C 7.484375 -6.234375 7.300781 -5.625 6.9375 -5.125 C 6.570312 -4.632812 6.078125 -4.289062 5.453125 -4.09375 L 8.875 0 L 6 0 L 2.96875 -3.90625 L 2.96875 0 L 0.71875 0 Z M 2.96875 -5.515625 L 3.234375 -5.515625 C 3.441406 -5.515625 3.617188 -5.515625 3.765625 -5.515625 C 3.910156 -5.523438 4.070312 -5.550781 4.25 -5.59375 C 4.4375 -5.644531 4.585938 -5.710938 4.703125 -5.796875 C 4.816406 -5.890625 4.910156 -6.019531 4.984375 -6.1875 C 5.066406 -6.351562 5.109375 -6.554688 5.109375 -6.796875 C 5.109375 -7.035156 5.066406 -7.238281 4.984375 -7.40625 C 4.910156 -7.582031 4.816406 -7.710938 4.703125 -7.796875 C 4.585938 -7.890625 4.4375 -7.957031 4.25 -8 C 4.070312 -8.050781 3.910156 -8.078125 3.765625 -8.078125 C 3.617188 -8.085938 3.441406 -8.09375 3.234375 -8.09375 L 2.96875 -8.09375 Z M 2.96875 -5.515625 "/></g></g></g><g fill="#000000" fill-opacity="1"><g transform="translate(313.332304, 183.119988)"><g><path d="M 0.09375 -7.921875 L 0.09375 -9.90625 L 7.0625 -9.90625 L 7.0625 -7.921875 L 4.703125 -7.921875 L 4.703125 0 L 2.453125 0 L 2.453125 -7.921875 Z M 0.09375 -7.921875 "/></g></g></g><g fill="#000000" fill-opacity="1"><g transform="translate(323.48438, 183.119988)"><g><path d="M 2.96875 -6.140625 L 2.96875 0 L 0.71875 0 L 0.71875 -9.90625 L 2.96875 -9.90625 L 6.90625 -3.75 L 6.9375 -3.75 L 6.9375 -9.90625 L 9.1875 -9.90625 L 9.1875 0 L 6.9375 0 L 3 -6.140625 Z M 2.96875 -6.140625 "/></g></g></g><g fill="#000000" fill-opacity="1"><g transform="translate(336.396461, 183.119988)"><g><path d="M 6.390625 -9.90625 L 6.390625 -7.921875 L 2.96875 -7.921875 L 2.96875 -5.953125 L 6.234375 -5.953125 L 6.234375 -3.96875 L 2.96875 -3.96875 L 2.96875 -1.984375 L 6.390625 -1.984375 L 6.390625 0 L 0.71875 0 L 0.71875 -9.90625 Z M 6.390625 -9.90625 "/></g></g></g><g fill="#000000" fill-opacity="1"><g transform="translate(346.356528, 183.119988)"><g><path d="M 0.71875 -9.90625 L 4.265625 -9.90625 C 5.210938 -9.90625 5.984375 -9.648438 6.578125 -9.140625 C 7.179688 -8.628906 7.484375 -7.898438 7.484375 -6.953125 C 7.484375 -6.234375 7.300781 -5.625 6.9375 -5.125 C 6.570312 -4.632812 6.078125 -4.289062 5.453125 -4.09375 L 8.875 0 L 6 0 L 2.96875 -3.90625 L 2.96875 0 L 0.71875 0 Z M 2.96875 -5.515625 L 3.234375 -5.515625 C 3.441406 -5.515625 3.617188 -5.515625 3.765625 -5.515625 C 3.910156 -5.523438 4.070312 -5.550781 4.25 -5.59375 C 4.4375 -5.644531 4.585938 -5.710938 4.703125 -5.796875 C 4.816406 -5.890625 4.910156 -6.019531 4.984375 -6.1875 C 5.066406 -6.351562 5.109375 -6.554688 5.109375 -6.796875 C 5.109375 -7.035156 5.066406 -7.238281 4.984375 -7.40625 C 4.910156 -7.582031 4.816406 -7.710938 4.703125 -7.796875 C 4.585938 -7.890625 4.4375 -7.957031 4.25 -8 C 4.070312 -8.050781 3.910156 -8.078125 3.765625 -8.078125 C 3.617188 -8.085938 3.441406 -8.09375 3.234375 -8.09375 L 2.96875 -8.09375 Z M 2.96875 -5.515625 "/></g></g></g><g fill="#000000" fill-opacity="1"><g transform="translate(357.948591, 183.119988)"><g><path d="M 4.375 -10.078125 C 4.90625 -10.078125 5.425781 -10 5.9375 -9.84375 C 6.445312 -9.6875 6.828125 -9.535156 7.078125 -9.390625 L 7.4375 -9.140625 L 6.53125 -7.34375 C 6.457031 -7.394531 6.351562 -7.457031 6.21875 -7.53125 C 6.09375 -7.601562 5.851562 -7.703125 5.5 -7.828125 C 5.15625 -7.960938 4.832031 -8.03125 4.53125 -8.03125 C 4.144531 -8.03125 3.847656 -7.945312 3.640625 -7.78125 C 3.441406 -7.625 3.34375 -7.410156 3.34375 -7.140625 C 3.34375 -7.003906 3.390625 -6.878906 3.484375 -6.765625 C 3.585938 -6.648438 3.753906 -6.523438 3.984375 -6.390625 C 4.210938 -6.253906 4.414062 -6.144531 4.59375 -6.0625 C 4.769531 -5.988281 5.039062 -5.875 5.40625 -5.71875 C 6.050781 -5.4375 6.597656 -5.0625 7.046875 -4.59375 C 7.503906 -4.132812 7.734375 -3.609375 7.734375 -3.015625 C 7.734375 -2.441406 7.628906 -1.941406 7.421875 -1.515625 C 7.210938 -1.097656 6.929688 -0.769531 6.578125 -0.53125 C 6.222656 -0.289062 5.828125 -0.113281 5.390625 0 C 4.960938 0.125 4.5 0.1875 4 0.1875 C 3.5625 0.1875 3.132812 0.140625 2.71875 0.046875 C 2.300781 -0.0351562 1.953125 -0.144531 1.671875 -0.28125 C 1.398438 -0.414062 1.148438 -0.546875 0.921875 -0.671875 C 0.703125 -0.796875 0.539062 -0.90625 0.4375 -1 L 0.28125 -1.125 L 1.40625 -3.03125 C 1.5 -2.945312 1.628906 -2.84375 1.796875 -2.71875 C 1.960938 -2.59375 2.257812 -2.425781 2.6875 -2.21875 C 3.125 -2.007812 3.503906 -1.90625 3.828125 -1.90625 C 4.773438 -1.90625 5.25 -2.226562 5.25 -2.875 C 5.25 -3.007812 5.210938 -3.132812 5.140625 -3.25 C 5.078125 -3.375 4.957031 -3.492188 4.78125 -3.609375 C 4.613281 -3.722656 4.460938 -3.8125 4.328125 -3.875 C 4.203125 -3.945312 3.988281 -4.050781 3.6875 -4.1875 C 3.382812 -4.332031 3.164062 -4.441406 3.03125 -4.515625 C 2.425781 -4.804688 1.957031 -5.171875 1.625 -5.609375 C 1.300781 -6.054688 1.140625 -6.539062 1.140625 -7.0625 C 1.140625 -7.945312 1.46875 -8.671875 2.125 -9.234375 C 2.78125 -9.796875 3.53125 -10.078125 4.375 -10.078125 Z M 4.375 -10.078125 "/></g></g></g><g fill="#000000" fill-opacity="1"><g transform="translate(140.74709, 198.818765)"><g><path d="M 1.984375 -2.640625 L 1.984375 0 L 0.484375 0 L 0.484375 -6.59375 L 1.984375 -6.59375 L 1.984375 -3.96875 L 4.109375 -3.96875 L 4.109375 -6.59375 L 5.609375 -6.59375 L 5.609375 0 L 4.109375 0 L 4.109375 -2.640625 Z M 1.984375 -2.640625 "/></g></g></g><g fill="#000000" fill-opacity="1"><g transform="translate(146.843148, 198.818765)"><g><path d="M 4.25 -6.59375 L 4.25 -5.28125 L 1.984375 -5.28125 L 1.984375 -3.96875 L 4.15625 -3.96875 L 4.15625 -2.640625 L 1.984375 -2.640625 L 1.984375 -1.3125 L 4.25 -1.3125 L 4.25 0 L 0.484375 0 L 0.484375 -6.59375 Z M 4.25 -6.59375 "/></g></g></g><g fill="#000000" fill-opacity="1"><g transform="translate(151.483196, 198.818765)"><g><path d="M 1.984375 -6.59375 L 1.984375 -1.3125 L 4.25 -1.3125 L 4.25 0 L 0.484375 0 L 0.484375 -6.59375 Z M 1.984375 -6.59375 "/></g></g></g><g fill="#000000" fill-opacity="1"><g transform="translate(156.00324, 198.818765)"><g><path d="M 0.484375 -6.59375 L 2.890625 -6.59375 C 3.554688 -6.59375 4.097656 -6.421875 4.515625 -6.078125 C 4.929688 -5.734375 5.140625 -5.226562 5.140625 -4.5625 C 5.140625 -3.90625 4.925781 -3.390625 4.5 -3.015625 C 4.082031 -2.640625 3.546875 -2.453125 2.890625 -2.453125 L 1.984375 -2.453125 L 1.984375 0 L 0.484375 0 Z M 1.984375 -3.640625 L 2.40625 -3.640625 C 2.738281 -3.640625 3.015625 -3.707031 3.234375 -3.84375 C 3.453125 -3.988281 3.5625 -4.210938 3.5625 -4.515625 C 3.5625 -4.828125 3.453125 -5.050781 3.234375 -5.1875 C 3.015625 -5.332031 2.738281 -5.40625 2.40625 -5.40625 L 1.984375 -5.40625 Z M 1.984375 -3.640625 "/></g></g></g><g fill="#000000" fill-opacity="1"><g transform="translate(161.331289, 198.818765)"><g><path d="M 1.984375 -6.59375 L 1.984375 0 L 0.484375 0 L 0.484375 -6.59375 Z M 1.984375 -6.59375 "/></g></g></g><g fill="#000000" fill-opacity="1"><g transform="translate(163.795316, 198.818765)"><g><path d="M 1.984375 -4.09375 L 1.984375 0 L 0.484375 0 L 0.484375 -6.59375 L 1.984375 -6.59375 L 4.609375 -2.5 L 4.625 -2.5 L 4.625 -6.59375 L 6.125 -6.59375 L 6.125 0 L 4.625 0 L 2 -4.09375 Z M 1.984375 -4.09375 "/></g></g></g><g fill="#000000" fill-opacity="1"><g transform="translate(170.403379, 198.818765)"><g><path d="M 6.453125 -3.703125 L 6.453125 -2.265625 C 6.273438 -1.484375 5.898438 -0.890625 5.328125 -0.484375 C 4.753906 -0.078125 4.113281 0.125 3.40625 0.125 C 2.507812 0.125 1.75 -0.207031 1.125 -0.875 C 0.5 -1.539062 0.1875 -2.347656 0.1875 -3.296875 C 0.1875 -4.253906 0.492188 -5.0625 1.109375 -5.71875 C 1.722656 -6.382812 2.488281 -6.71875 3.40625 -6.71875 C 4.476562 -6.71875 5.320312 -6.34375 5.9375 -5.59375 L 4.953125 -4.515625 C 4.609375 -5.078125 4.117188 -5.359375 3.484375 -5.359375 C 3.023438 -5.359375 2.628906 -5.15625 2.296875 -4.75 C 1.972656 -4.351562 1.8125 -3.867188 1.8125 -3.296875 C 1.8125 -2.734375 1.972656 -2.253906 2.296875 -1.859375 C 2.628906 -1.460938 3.023438 -1.265625 3.484375 -1.265625 C 3.867188 -1.265625 4.203125 -1.378906 4.484375 -1.609375 C 4.773438 -1.835938 4.921875 -2.144531 4.921875 -2.53125 L 3.40625 -2.53125 L 3.40625 -3.703125 Z M 6.453125 -3.703125 "/></g></g></g><g fill="#000000" fill-opacity="1"><g transform="translate(177.035448, 198.818765)"><g/></g></g><g fill="#000000" fill-opacity="1"><g transform="translate(179.219465, 198.818765)"><g><path d="M -0.234375 -6.59375 L 1.5625 -6.59375 L 2.9375 -4.484375 L 4.3125 -6.59375 L 6.125 -6.59375 L 3.703125 -2.953125 L 3.703125 0 L 2.1875 0 L 2.1875 -2.953125 Z M -0.234375 -6.59375 "/></g></g></g><g fill="#000000" fill-opacity="1"><g transform="translate(185.107524, 198.818765)"><g><path d="M 0.1875 -3.296875 C 0.1875 -4.253906 0.507812 -5.0625 1.15625 -5.71875 C 1.8125 -6.382812 2.597656 -6.71875 3.515625 -6.71875 C 4.429688 -6.71875 5.210938 -6.390625 5.859375 -5.734375 C 6.503906 -5.078125 6.828125 -4.265625 6.828125 -3.296875 C 6.828125 -2.335938 6.507812 -1.523438 5.875 -0.859375 C 5.238281 -0.203125 4.453125 0.125 3.515625 0.125 C 2.546875 0.125 1.75 -0.203125 1.125 -0.859375 C 0.5 -1.515625 0.1875 -2.328125 0.1875 -3.296875 Z M 1.8125 -3.296875 C 1.8125 -2.953125 1.863281 -2.632812 1.96875 -2.34375 C 2.070312 -2.0625 2.253906 -1.820312 2.515625 -1.625 C 2.785156 -1.4375 3.117188 -1.34375 3.515625 -1.34375 C 4.078125 -1.34375 4.5 -1.53125 4.78125 -1.90625 C 5.0625 -2.289062 5.203125 -2.753906 5.203125 -3.296875 C 5.203125 -3.835938 5.054688 -4.300781 4.765625 -4.6875 C 4.484375 -5.070312 4.066406 -5.265625 3.515625 -5.265625 C 2.972656 -5.265625 2.550781 -5.070312 2.25 -4.6875 C 1.957031 -4.300781 1.8125 -3.835938 1.8125 -3.296875 Z M 1.8125 -3.296875 "/></g></g></g><g fill="#000000" fill-opacity="1"><g transform="translate(192.123598, 198.818765)"><g><path d="M 5.546875 -6.59375 L 5.546875 -2.34375 C 5.546875 -1.53125 5.328125 -0.914062 4.890625 -0.5 C 4.453125 -0.0820312 3.8125 0.125 2.96875 0.125 C 2.132812 0.125 1.5 -0.0820312 1.0625 -0.5 C 0.625 -0.914062 0.40625 -1.53125 0.40625 -2.34375 L 0.40625 -6.59375 L 1.90625 -6.59375 L 1.90625 -2.78125 C 1.90625 -2.25 1.988281 -1.878906 2.15625 -1.671875 C 2.320312 -1.460938 2.59375 -1.359375 2.96875 -1.359375 C 3.351562 -1.359375 3.628906 -1.460938 3.796875 -1.671875 C 3.960938 -1.878906 4.046875 -2.25 4.046875 -2.78125 L 4.046875 -6.59375 Z M 5.546875 -6.59375 "/></g></g></g><g fill="#000000" fill-opacity="1"><g transform="translate(198.075662, 198.818765)"><g/></g></g><g fill="#000000" fill-opacity="1"><g transform="translate(200.25968, 198.818765)"><g><path d="M 4.296875 -6.59375 L 4.296875 -5.28125 L 1.984375 -5.28125 L 1.984375 -3.96875 L 4.125 -3.96875 L 4.125 -2.640625 L 1.984375 -2.640625 L 1.984375 0 L 0.484375 0 L 0.484375 -6.59375 Z M 4.296875 -6.59375 "/></g></g></g><g fill="#000000" fill-opacity="1"><g transform="translate(204.795724, 198.818765)"><g><path d="M 0.1875 -3.296875 C 0.1875 -4.253906 0.507812 -5.0625 1.15625 -5.71875 C 1.8125 -6.382812 2.597656 -6.71875 3.515625 -6.71875 C 4.429688 -6.71875 5.210938 -6.390625 5.859375 -5.734375 C 6.503906 -5.078125 6.828125 -4.265625 6.828125 -3.296875 C 6.828125 -2.335938 6.507812 -1.523438 5.875 -0.859375 C 5.238281 -0.203125 4.453125 0.125 3.515625 0.125 C 2.546875 0.125 1.75 -0.203125 1.125 -0.859375 C 0.5 -1.515625 0.1875 -2.328125 0.1875 -3.296875 Z M 1.8125 -3.296875 C 1.8125 -2.953125 1.863281 -2.632812 1.96875 -2.34375 C 2.070312 -2.0625 2.253906 -1.820312 2.515625 -1.625 C 2.785156 -1.4375 3.117188 -1.34375 3.515625 -1.34375 C 4.078125 -1.34375 4.5 -1.53125 4.78125 -1.90625 C 5.0625 -2.289062 5.203125 -2.753906 5.203125 -3.296875 C 5.203125 -3.835938 5.054688 -4.300781 4.765625 -4.6875 C 4.484375 -5.070312 4.066406 -5.265625 3.515625 -5.265625 C 2.972656 -5.265625 2.550781 -5.070312 2.25 -4.6875 C 1.957031 -4.300781 1.8125 -3.835938 1.8125 -3.296875 Z M 1.8125 -3.296875 "/></g></g></g><g fill="#000000" fill-opacity="1"><g transform="translate(211.811798, 198.818765)"><g><path d="M 3.984375 -1.359375 C 4.222656 -1.359375 4.445312 -1.390625 4.65625 -1.453125 C 4.875 -1.523438 5.035156 -1.59375 5.140625 -1.65625 L 5.28125 -1.765625 L 5.921875 -0.484375 C 5.898438 -0.472656 5.867188 -0.453125 5.828125 -0.421875 C 5.796875 -0.398438 5.710938 -0.351562 5.578125 -0.28125 C 5.441406 -0.207031 5.296875 -0.144531 5.140625 -0.09375 C 4.984375 -0.0390625 4.78125 0.00390625 4.53125 0.046875 C 4.28125 0.0976562 4.023438 0.125 3.765625 0.125 C 3.148438 0.125 2.566406 -0.0234375 2.015625 -0.328125 C 1.460938 -0.628906 1.019531 -1.046875 0.6875 -1.578125 C 0.351562 -2.109375 0.1875 -2.675781 0.1875 -3.28125 C 0.1875 -3.75 0.285156 -4.195312 0.484375 -4.625 C 0.679688 -5.050781 0.941406 -5.414062 1.265625 -5.71875 C 1.597656 -6.019531 1.984375 -6.257812 2.421875 -6.4375 C 2.859375 -6.625 3.304688 -6.71875 3.765625 -6.71875 C 4.191406 -6.71875 4.582031 -6.664062 4.9375 -6.5625 C 5.300781 -6.46875 5.554688 -6.367188 5.703125 -6.265625 L 5.921875 -6.109375 L 5.28125 -4.828125 C 5.25 -4.859375 5.195312 -4.894531 5.125 -4.9375 C 5.050781 -4.988281 4.898438 -5.050781 4.671875 -5.125 C 4.453125 -5.195312 4.222656 -5.234375 3.984375 -5.234375 C 3.628906 -5.234375 3.304688 -5.175781 3.015625 -5.0625 C 2.722656 -4.945312 2.492188 -4.789062 2.328125 -4.59375 C 2.160156 -4.40625 2.03125 -4.195312 1.9375 -3.96875 C 1.851562 -3.75 1.8125 -3.523438 1.8125 -3.296875 C 1.8125 -2.796875 2 -2.347656 2.375 -1.953125 C 2.75 -1.554688 3.285156 -1.359375 3.984375 -1.359375 Z M 3.984375 -1.359375 "/></g></g></g><g fill="#000000" fill-opacity="1"><g transform="translate(217.835853, 198.818765)"><g><path d="M 5.546875 -6.59375 L 5.546875 -2.34375 C 5.546875 -1.53125 5.328125 -0.914062 4.890625 -0.5 C 4.453125 -0.0820312 3.8125 0.125 2.96875 0.125 C 2.132812 0.125 1.5 -0.0820312 1.0625 -0.5 C 0.625 -0.914062 0.40625 -1.53125 0.40625 -2.34375 L 0.40625 -6.59375 L 1.90625 -6.59375 L 1.90625 -2.78125 C 1.90625 -2.25 1.988281 -1.878906 2.15625 -1.671875 C 2.320312 -1.460938 2.59375 -1.359375 2.96875 -1.359375 C 3.351562 -1.359375 3.628906 -1.460938 3.796875 -1.671875 C 3.960938 -1.878906 4.046875 -2.25 4.046875 -2.78125 L 4.046875 -6.59375 Z M 5.546875 -6.59375 "/></g></g></g><g fill="#000000" fill-opacity="1"><g transform="translate(223.787918, 198.818765)"><g><path d="M 2.90625 -6.71875 C 3.269531 -6.71875 3.617188 -6.664062 3.953125 -6.5625 C 4.296875 -6.457031 4.550781 -6.351562 4.71875 -6.25 L 4.953125 -6.09375 L 4.359375 -4.890625 C 4.304688 -4.921875 4.238281 -4.960938 4.15625 -5.015625 C 4.070312 -5.066406 3.910156 -5.132812 3.671875 -5.21875 C 3.429688 -5.3125 3.210938 -5.359375 3.015625 -5.359375 C 2.765625 -5.359375 2.570312 -5.300781 2.4375 -5.1875 C 2.300781 -5.082031 2.234375 -4.941406 2.234375 -4.765625 C 2.234375 -4.671875 2.265625 -4.582031 2.328125 -4.5 C 2.390625 -4.425781 2.5 -4.34375 2.65625 -4.25 C 2.8125 -4.164062 2.945312 -4.097656 3.0625 -4.046875 C 3.175781 -3.992188 3.359375 -3.914062 3.609375 -3.8125 C 4.035156 -3.625 4.398438 -3.375 4.703125 -3.0625 C 5.003906 -2.75 5.15625 -2.398438 5.15625 -2.015625 C 5.15625 -1.628906 5.085938 -1.296875 4.953125 -1.015625 C 4.816406 -0.734375 4.628906 -0.507812 4.390625 -0.34375 C 4.148438 -0.1875 3.882812 -0.0703125 3.59375 0 C 3.3125 0.0820312 3 0.125 2.65625 0.125 C 2.375 0.125 2.09375 0.09375 1.8125 0.03125 C 1.539062 -0.03125 1.3125 -0.101562 1.125 -0.1875 C 0.9375 -0.269531 0.765625 -0.351562 0.609375 -0.4375 C 0.460938 -0.53125 0.351562 -0.601562 0.28125 -0.65625 L 0.1875 -0.75 L 0.9375 -2.015625 C 1 -1.960938 1.085938 -1.894531 1.203125 -1.8125 C 1.316406 -1.726562 1.515625 -1.613281 1.796875 -1.46875 C 2.078125 -1.332031 2.328125 -1.265625 2.546875 -1.265625 C 3.179688 -1.265625 3.5 -1.484375 3.5 -1.921875 C 3.5 -2.015625 3.476562 -2.097656 3.4375 -2.171875 C 3.394531 -2.242188 3.316406 -2.316406 3.203125 -2.390625 C 3.085938 -2.472656 2.984375 -2.535156 2.890625 -2.578125 C 2.804688 -2.628906 2.660156 -2.703125 2.453125 -2.796875 C 2.253906 -2.890625 2.109375 -2.960938 2.015625 -3.015625 C 1.617188 -3.203125 1.3125 -3.441406 1.09375 -3.734375 C 0.875 -4.035156 0.765625 -4.359375 0.765625 -4.703125 C 0.765625 -5.296875 0.984375 -5.78125 1.421875 -6.15625 C 1.859375 -6.53125 2.351562 -6.71875 2.90625 -6.71875 Z M 2.90625 -6.71875 "/></g></g></g><g fill="#000000" fill-opacity="1"><g transform="translate(229.163972, 198.818765)"><g/></g></g><g fill="#000000" fill-opacity="1"><g transform="translate(231.347989, 198.818765)"><g><path d="M 0.1875 -3.296875 C 0.1875 -4.253906 0.507812 -5.0625 1.15625 -5.71875 C 1.8125 -6.382812 2.597656 -6.71875 3.515625 -6.71875 C 4.429688 -6.71875 5.210938 -6.390625 5.859375 -5.734375 C 6.503906 -5.078125 6.828125 -4.265625 6.828125 -3.296875 C 6.828125 -2.335938 6.507812 -1.523438 5.875 -0.859375 C 5.238281 -0.203125 4.453125 0.125 3.515625 0.125 C 2.546875 0.125 1.75 -0.203125 1.125 -0.859375 C 0.5 -1.515625 0.1875 -2.328125 0.1875 -3.296875 Z M 1.8125 -3.296875 C 1.8125 -2.953125 1.863281 -2.632812 1.96875 -2.34375 C 2.070312 -2.0625 2.253906 -1.820312 2.515625 -1.625 C 2.785156 -1.4375 3.117188 -1.34375 3.515625 -1.34375 C 4.078125 -1.34375 4.5 -1.53125 4.78125 -1.90625 C 5.0625 -2.289062 5.203125 -2.753906 5.203125 -3.296875 C 5.203125 -3.835938 5.054688 -4.300781 4.765625 -4.6875 C 4.484375 -5.070312 4.066406 -5.265625 3.515625 -5.265625 C 2.972656 -5.265625 2.550781 -5.070312 2.25 -4.6875 C 1.957031 -4.300781 1.8125 -3.835938 1.8125 -3.296875 Z M 1.8125 -3.296875 "/></g></g></g><g fill="#000000" fill-opacity="1"><g transform="translate(238.364062, 198.818765)"><g><path d="M 1.984375 -4.09375 L 1.984375 0 L 0.484375 0 L 0.484375 -6.59375 L 1.984375 -6.59375 L 4.609375 -2.5 L 4.625 -2.5 L 4.625 -6.59375 L 6.125 -6.59375 L 6.125 0 L 4.625 0 L 2 -4.09375 Z M 1.984375 -4.09375 "/></g></g></g><g fill="#000000" fill-opacity="1"><g transform="translate(244.972125, 198.818765)"><g/></g></g><g fill="#000000" fill-opacity="1"><g transform="translate(247.156142, 198.818765)"><g><path d="M 5.546875 0 L 4.484375 -3.703125 L 3.4375 0 L 1.765625 0 L -0.125 -6.59375 L 1.546875 -6.59375 L 2.6875 -2.078125 L 2.71875 -2.078125 L 3.921875 -6.59375 L 5.0625 -6.59375 L 6.25 -2.078125 L 6.296875 -2.078125 L 7.421875 -6.59375 L 9.09375 -6.59375 L 7.203125 0 Z M 5.546875 0 "/></g></g></g><g fill="#000000" fill-opacity="1"><g transform="translate(256.124227, 198.818765)"><g><path d="M 1.984375 -2.640625 L 1.984375 0 L 0.484375 0 L 0.484375 -6.59375 L 1.984375 -6.59375 L 1.984375 -3.96875 L 4.109375 -3.96875 L 4.109375 -6.59375 L 5.609375 -6.59375 L 5.609375 0 L 4.109375 0 L 4.109375 -2.640625 Z M 1.984375 -2.640625 "/></g></g></g><g fill="#000000" fill-opacity="1"><g transform="translate(262.220284, 198.818765)"><g><path d="M 3.828125 -6.59375 L 6.5 0 L 4.875 0 L 4.390625 -1.3125 L 1.875 -1.3125 L 1.390625 0 L -0.21875 0 L 2.4375 -6.59375 Z M 3.875 -2.640625 L 3.140625 -4.5625 L 3.125 -4.5625 L 2.390625 -2.640625 Z M 3.875 -2.640625 "/></g></g></g><g fill="#000000" fill-opacity="1"><g transform="translate(268.492347, 198.818765)"><g><path d="M 0.0625 -5.28125 L 0.0625 -6.59375 L 4.703125 -6.59375 L 4.703125 -5.28125 L 3.140625 -5.28125 L 3.140625 0 L 1.625 0 L 1.625 -5.28125 Z M 0.0625 -5.28125 "/></g></g></g><g fill="#000000" fill-opacity="1"><g transform="translate(273.260397, 198.818765)"><g/></g></g><g fill="#000000" fill-opacity="1"><g transform="translate(275.444415, 198.818765)"><g><path d="M 5.9375 0 L 5.625 -3.90625 L 5.578125 -3.90625 L 4.234375 -0.046875 L 3.34375 -0.046875 L 1.984375 -3.90625 L 1.9375 -3.90625 L 1.625 0 L 0.125 0 L 0.71875 -6.59375 L 2.3125 -6.59375 L 3.78125 -2.796875 L 5.25 -6.59375 L 6.84375 -6.59375 L 7.4375 0 Z M 5.9375 0 "/></g></g></g><g fill="#000000" fill-opacity="1"><g transform="translate(283.012492, 198.818765)"><g><path d="M 3.828125 -6.59375 L 6.5 0 L 4.875 0 L 4.390625 -1.3125 L 1.875 -1.3125 L 1.390625 0 L -0.21875 0 L 2.4375 -6.59375 Z M 3.875 -2.640625 L 3.140625 -4.5625 L 3.125 -4.5625 L 2.390625 -2.640625 Z M 3.875 -2.640625 "/></g></g></g><g fill="#000000" fill-opacity="1"><g transform="translate(289.284554, 198.818765)"><g><path d="M 0.0625 -5.28125 L 0.0625 -6.59375 L 4.703125 -6.59375 L 4.703125 -5.28125 L 3.140625 -5.28125 L 3.140625 0 L 1.625 0 L 1.625 -5.28125 Z M 0.0625 -5.28125 "/></g></g></g><g fill="#000000" fill-opacity="1"><g transform="translate(294.052604, 198.818765)"><g><path d="M 0.0625 -5.28125 L 0.0625 -6.59375 L 4.703125 -6.59375 L 4.703125 -5.28125 L 3.140625 -5.28125 L 3.140625 0 L 1.625 0 L 1.625 -5.28125 Z M 0.0625 -5.28125 "/></g></g></g><g fill="#000000" fill-opacity="1"><g transform="translate(298.820655, 198.818765)"><g><path d="M 4.25 -6.59375 L 4.25 -5.28125 L 1.984375 -5.28125 L 1.984375 -3.96875 L 4.15625 -3.96875 L 4.15625 -2.640625 L 1.984375 -2.640625 L 1.984375 -1.3125 L 4.25 -1.3125 L 4.25 0 L 0.484375 0 L 0.484375 -6.59375 Z M 4.25 -6.59375 "/></g></g></g><g fill="#000000" fill-opacity="1"><g transform="translate(303.460704, 198.818765)"><g><path d="M 0.484375 -6.59375 L 2.84375 -6.59375 C 3.476562 -6.59375 3.992188 -6.421875 4.390625 -6.078125 C 4.785156 -5.742188 4.984375 -5.265625 4.984375 -4.640625 C 4.984375 -4.148438 4.863281 -3.738281 4.625 -3.40625 C 4.382812 -3.082031 4.054688 -2.859375 3.640625 -2.734375 L 5.90625 0 L 4 0 L 1.984375 -2.609375 L 1.984375 0 L 0.484375 0 Z M 1.984375 -3.671875 L 2.15625 -3.671875 C 2.300781 -3.671875 2.421875 -3.671875 2.515625 -3.671875 C 2.609375 -3.679688 2.71875 -3.703125 2.84375 -3.734375 C 2.96875 -3.765625 3.066406 -3.804688 3.140625 -3.859375 C 3.210938 -3.921875 3.273438 -4.007812 3.328125 -4.125 C 3.378906 -4.238281 3.40625 -4.375 3.40625 -4.53125 C 3.40625 -4.695312 3.378906 -4.832031 3.328125 -4.9375 C 3.273438 -5.050781 3.210938 -5.132812 3.140625 -5.1875 C 3.066406 -5.25 2.96875 -5.296875 2.84375 -5.328125 C 2.71875 -5.367188 2.609375 -5.390625 2.515625 -5.390625 C 2.421875 -5.398438 2.300781 -5.40625 2.15625 -5.40625 L 1.984375 -5.40625 Z M 1.984375 -3.671875 "/></g></g></g><g fill="#000000" fill-opacity="1"><g transform="translate(309.188758, 198.818765)"><g><path d="M 2.90625 -6.71875 C 3.269531 -6.71875 3.617188 -6.664062 3.953125 -6.5625 C 4.296875 -6.457031 4.550781 -6.351562 4.71875 -6.25 L 4.953125 -6.09375 L 4.359375 -4.890625 C 4.304688 -4.921875 4.238281 -4.960938 4.15625 -5.015625 C 4.070312 -5.066406 3.910156 -5.132812 3.671875 -5.21875 C 3.429688 -5.3125 3.210938 -5.359375 3.015625 -5.359375 C 2.765625 -5.359375 2.570312 -5.300781 2.4375 -5.1875 C 2.300781 -5.082031 2.234375 -4.941406 2.234375 -4.765625 C 2.234375 -4.671875 2.265625 -4.582031 2.328125 -4.5 C 2.390625 -4.425781 2.5 -4.34375 2.65625 -4.25 C 2.8125 -4.164062 2.945312 -4.097656 3.0625 -4.046875 C 3.175781 -3.992188 3.359375 -3.914062 3.609375 -3.8125 C 4.035156 -3.625 4.398438 -3.375 4.703125 -3.0625 C 5.003906 -2.75 5.15625 -2.398438 5.15625 -2.015625 C 5.15625 -1.628906 5.085938 -1.296875 4.953125 -1.015625 C 4.816406 -0.734375 4.628906 -0.507812 4.390625 -0.34375 C 4.148438 -0.1875 3.882812 -0.0703125 3.59375 0 C 3.3125 0.0820312 3 0.125 2.65625 0.125 C 2.375 0.125 2.09375 0.09375 1.8125 0.03125 C 1.539062 -0.03125 1.3125 -0.101562 1.125 -0.1875 C 0.9375 -0.269531 0.765625 -0.351562 0.609375 -0.4375 C 0.460938 -0.53125 0.351562 -0.601562 0.28125 -0.65625 L 0.1875 -0.75 L 0.9375 -2.015625 C 1 -1.960938 1.085938 -1.894531 1.203125 -1.8125 C 1.316406 -1.726562 1.515625 -1.613281 1.796875 -1.46875 C 2.078125 -1.332031 2.328125 -1.265625 2.546875 -1.265625 C 3.179688 -1.265625 3.5 -1.484375 3.5 -1.921875 C 3.5 -2.015625 3.476562 -2.097656 3.4375 -2.171875 C 3.394531 -2.242188 3.316406 -2.316406 3.203125 -2.390625 C 3.085938 -2.472656 2.984375 -2.535156 2.890625 -2.578125 C 2.804688 -2.628906 2.660156 -2.703125 2.453125 -2.796875 C 2.253906 -2.890625 2.109375 -2.960938 2.015625 -3.015625 C 1.617188 -3.203125 1.3125 -3.441406 1.09375 -3.734375 C 0.875 -4.035156 0.765625 -4.359375 0.765625 -4.703125 C 0.765625 -5.296875 0.984375 -5.78125 1.421875 -6.15625 C 1.859375 -6.53125 2.351562 -6.71875 2.90625 -6.71875 Z M 2.90625 -6.71875 "/></g></g></g></svg>